<?xml version="1.0" encoding="utf-8"?>
<!-- Generator: Adobe Illustrator 27.5.0, SVG Export Plug-In . SVG Version: 6.00 Build 0)  -->
<svg version="1.1" xmlns="http://www.w3.org/2000/svg" xmlns:xlink="http://www.w3.org/1999/xlink" x="0px" y="0px"
	 viewBox="0 0 500 500" style="enable-background:new 0 0 500 500;" xml:space="preserve">
<g id="Background_Complete">
	<g>
		<g>
			<g>
				<g>
					<path style="fill:#E0E0E0;" d="M463.001,233.439c-0.005-0.005-0.01-0.084-0.015-0.234c-0.004-0.172-0.009-0.389-0.016-0.66
						c-0.009-0.606-0.021-1.45-0.037-2.533c-0.02-2.222-0.048-5.416-0.083-9.444l0.151,0.151
						c-11.109,0.022-28.776,0.057-48.65,0.097c0.11-0.11-0.25,0.247,0.245-0.248v0.003v0.007v0.013v0.026v0.052v0.104l0,0.207v0.414
						v0.825c0,0.549,0,1.097,0,1.642c0,1.091-0.001,2.174-0.001,3.248c-0.001,2.148-0.003,4.261-0.004,6.331l-0.242-0.242
						c13.854,0.044,25.977,0.083,34.671,0.11c4.331,0.029,7.806,0.053,10.234,0.069c1.181,0.014,2.105,0.024,2.767,0.032
						c0.298,0.006,0.536,0.012,0.724,0.016C462.909,233.428,462.996,233.434,463.001,233.439c0.005,0.005-0.071,0.01-0.225,0.016
						c-0.18,0.004-0.408,0.009-0.694,0.016c-0.649,0.008-1.557,0.018-2.715,0.032c-2.414,0.016-5.871,0.04-10.178,0.069
						c-8.737,0.028-20.919,0.066-34.84,0.11l-0.242,0.001l0-0.243c-0.001-2.07-0.003-4.183-0.004-6.331
						c0-1.074-0.001-2.157-0.001-3.248c0-0.545,0-1.093,0-1.642l0-0.825v-0.414v-0.207v-0.104v-0.052v-0.026v-0.013v-0.007v-0.003
						c0.496-0.496,0.139-0.137,0.251-0.248c19.874,0.04,37.541,0.075,48.65,0.097l0.152,0l-0.001,0.151
						c-0.036,4.066-0.064,7.29-0.083,9.534c-0.016,1.068-0.028,1.902-0.037,2.499c-0.007,0.26-0.012,0.468-0.016,0.634
						C463.011,233.375,463.006,233.444,463.001,233.439z"/>
				</g>
			</g>
		</g>
		<g>
			<g>
				<g>
					<path style="fill:#E0E0E0;" d="M469.598,220.568c-0.006-0.006-0.012-0.089-0.019-0.245c-0.005-0.185-0.012-0.409-0.019-0.682
						c-0.011-0.633-0.026-1.494-0.044-2.581c-0.023-2.257-0.056-5.444-0.096-9.363l0.178,0.178
						c-7.573,0.018-17.875,0.043-29.23,0.07c-0.223,0.221,0.299-0.302,0.246-0.247v0.003v0.007v0.013v0.027v0.053v0.106l0,0.212
						v0.422l0,0.842c0,0.559,0,1.116-0.001,1.669c-0.001,1.106-0.001,2.199-0.002,3.276c-0.003,2.153-0.006,4.241-0.009,6.241
						l-0.236-0.236c8.439,0.045,15.704,0.084,20.911,0.112c2.568,0.028,4.626,0.049,6.091,0.065c0.684,0.012,1.229,0.022,1.643,0.03
						C469.387,220.548,469.588,220.558,469.598,220.568c0.01,0.01-0.172,0.019-0.531,0.029c-0.401,0.007-0.93,0.017-1.594,0.03
						c-1.452,0.016-3.492,0.038-6.038,0.065c-5.247,0.028-12.567,0.067-21.07,0.112l-0.236,0.001l0-0.237
						c-0.003-2-0.006-4.088-0.009-6.241c-0.001-1.077-0.001-2.17-0.002-3.276c0-0.553,0-1.11-0.001-1.669l0-0.842v-0.422v-0.212
						v-0.106v-0.053v-0.027v-0.013v-0.007v-0.003c-0.054,0.052,0.47-0.471,0.25-0.249c11.355,0.027,21.657,0.052,29.23,0.07
						l0.18,0.001l-0.002,0.178c-0.04,3.965-0.073,7.189-0.096,9.472c-0.019,1.07-0.034,1.917-0.044,2.541
						C469.622,220.285,469.61,220.58,469.598,220.568z"/>
				</g>
			</g>
		</g>
	</g>
	<g>
		<g>
			<g>
				<rect x="50.68" y="96.725" style="fill:#EBEBEB;" width="48.653" height="12.871"/>
			</g>
		</g>
		<g>
			<g>
				<g>
					<path style="fill:#E0E0E0;" d="M78.76,123.153c-0.005-0.005-0.01-0.084-0.015-0.234c-0.004-0.172-0.009-0.389-0.016-0.66
						c-0.009-0.606-0.021-1.45-0.036-2.533c-0.02-2.222-0.048-5.416-0.083-9.444l0.151,0.151
						c-11.109,0.022-28.776,0.057-48.65,0.097c0.11-0.11-0.25,0.247,0.245-0.247v0.003v0.007v0.013v0.026v0.052v0.104v0.207l0,0.414
						v0.825c0,0.549,0,1.097,0,1.642c0,1.091-0.001,2.174-0.001,3.248c-0.001,2.148-0.003,4.261-0.004,6.331l-0.242-0.242
						c13.854,0.044,25.976,0.082,34.671,0.11c4.331,0.029,7.806,0.053,10.234,0.069c1.181,0.014,2.105,0.024,2.767,0.032
						c0.298,0.007,0.536,0.012,0.724,0.016C78.668,123.142,78.754,123.147,78.76,123.153c0.005,0.005-0.071,0.01-0.225,0.016
						c-0.18,0.004-0.408,0.009-0.694,0.015c-0.649,0.008-1.556,0.018-2.715,0.032c-2.414,0.016-5.871,0.04-10.178,0.069
						c-8.737,0.028-20.919,0.066-34.84,0.11l-0.242,0.001l0-0.243c-0.001-2.07-0.003-4.183-0.004-6.331
						c0-1.074-0.001-2.157-0.001-3.248c0-0.545,0-1.093,0-1.642l0-0.825v-0.414v-0.207v-0.104v-0.052v-0.026v-0.013v-0.007v-0.003
						c0.496-0.496,0.139-0.138,0.251-0.248c19.874,0.04,37.541,0.075,48.65,0.097l0.152,0l-0.001,0.151
						c-0.036,4.066-0.064,7.29-0.083,9.534c-0.016,1.068-0.028,1.902-0.037,2.499c-0.006,0.26-0.012,0.468-0.016,0.634
						C78.77,123.089,78.765,123.158,78.76,123.153z"/>
				</g>
			</g>
		</g>
	</g>
	<g>
		<g>
			<g>
				<rect x="85.416" y="285.661" style="fill:#EBEBEB;" width="48.653" height="12.871"/>
			</g>
		</g>
		<g>
			<g>
				<g>
					<path style="fill:#E0E0E0;" d="M113.496,312.09c-0.005-0.005-0.01-0.084-0.015-0.234c-0.004-0.172-0.009-0.389-0.016-0.66
						c-0.009-0.606-0.021-1.45-0.037-2.533c-0.02-2.222-0.048-5.416-0.083-9.444l0.151,0.151
						c-11.109,0.022-28.776,0.057-48.65,0.097c0.11-0.11-0.25,0.247,0.245-0.247v0.003v0.007v0.013v0.026v0.052v0.104v0.207l0,0.414
						v0.825c0,0.549,0,1.096,0,1.642c0,1.091-0.001,2.174-0.001,3.248c-0.001,2.148-0.003,4.261-0.004,6.331l-0.242-0.242
						c13.854,0.044,25.977,0.083,34.671,0.11c4.331,0.029,7.806,0.053,10.234,0.069c1.181,0.014,2.105,0.024,2.767,0.032
						c0.298,0.007,0.536,0.012,0.724,0.016C113.405,312.079,113.491,312.084,113.496,312.09c0.005,0.005-0.071,0.01-0.225,0.016
						c-0.18,0.004-0.408,0.009-0.694,0.016c-0.649,0.008-1.556,0.018-2.715,0.032c-2.414,0.016-5.871,0.04-10.178,0.069
						c-8.737,0.028-20.919,0.066-34.84,0.11l-0.242,0.001l0-0.243c-0.001-2.07-0.003-4.183-0.004-6.331
						c0-1.074-0.001-2.157-0.001-3.248c0-0.545,0-1.093,0-1.642l0-0.825v-0.414v-0.207v-0.104v-0.052v-0.026v-0.013v-0.007v-0.003
						c0.496-0.496,0.139-0.138,0.251-0.248c19.874,0.04,37.541,0.075,48.65,0.097l0.152,0l-0.001,0.151
						c-0.036,4.066-0.064,7.29-0.083,9.534c-0.016,1.068-0.028,1.902-0.037,2.499c-0.006,0.26-0.012,0.468-0.016,0.634
						C113.506,312.026,113.501,312.095,113.496,312.09z"/>
				</g>
			</g>
		</g>
	</g>
	<g>
		<g>
			<g>
				<rect x="411.054" y="356.185" style="fill:#EBEBEB;" width="48.653" height="12.871"/>
			</g>
		</g>
		<g>
			<g>
				<g>
					<path style="fill:#E0E0E0;" d="M439.134,382.613c-0.005-0.005-0.01-0.084-0.015-0.234c-0.004-0.172-0.009-0.389-0.016-0.66
						c-0.009-0.606-0.021-1.45-0.036-2.533c-0.02-2.222-0.048-5.416-0.083-9.444l0.151,0.151
						c-11.109,0.022-28.776,0.057-48.65,0.097c0.11-0.11-0.25,0.247,0.245-0.247v0.003v0.007v0.013v0.026v0.052v0.104v0.207l0,0.414
						v0.825c0,0.549,0,1.096,0,1.642c0,1.091-0.001,2.174-0.001,3.248c-0.001,2.148-0.003,4.261-0.004,6.331l-0.242-0.242
						c13.854,0.044,25.977,0.082,34.671,0.11c4.331,0.029,7.806,0.053,10.234,0.069c1.181,0.014,2.105,0.024,2.767,0.032
						c0.298,0.007,0.536,0.012,0.724,0.016C439.042,382.602,439.128,382.607,439.134,382.613c0.005,0.005-0.071,0.01-0.225,0.016
						c-0.18,0.004-0.408,0.009-0.694,0.016c-0.649,0.008-1.557,0.018-2.715,0.032c-2.414,0.016-5.871,0.04-10.178,0.069
						c-8.737,0.028-20.919,0.066-34.84,0.11l-0.242,0.001l0-0.243c-0.001-2.07-0.003-4.183-0.004-6.331
						c0-1.074-0.001-2.157-0.001-3.248c0-0.545,0-1.093,0-1.642l0-0.825v-0.414v-0.207v-0.104v-0.052v-0.026v-0.013v-0.007v-0.003
						c0.496-0.496,0.139-0.138,0.251-0.248c19.874,0.04,37.541,0.075,48.65,0.097l0.152,0l-0.001,0.151
						c-0.036,4.066-0.064,7.29-0.083,9.534c-0.016,1.068-0.028,1.902-0.037,2.499c-0.006,0.26-0.012,0.468-0.016,0.634
						C439.144,382.549,439.139,382.618,439.134,382.613z"/>
				</g>
			</g>
		</g>
	</g>
	<g>
		<g>
			<g>
				<g>
					<path style="fill:#E0E0E0;" d="M251.44,48.584c-0.005-0.005-0.01-0.084-0.015-0.234c-0.004-0.172-0.009-0.389-0.016-0.66
						c-0.009-0.606-0.021-1.45-0.037-2.533c-0.02-2.222-0.048-5.416-0.083-9.444l0.151,0.151
						c-11.109,0.022-28.776,0.057-48.65,0.097c0.11-0.11-0.25,0.247,0.245-0.248v0.003v0.007v0.013v0.026v0.052v0.104l0,0.207v0.414
						v0.825c0,0.549,0,1.097,0,1.642c0,1.091-0.001,2.174-0.001,3.248c-0.001,2.148-0.003,4.261-0.004,6.331l-0.242-0.242
						c13.854,0.044,25.977,0.083,34.671,0.11c4.331,0.029,7.806,0.053,10.234,0.069c1.181,0.014,2.105,0.024,2.767,0.032
						c0.298,0.006,0.536,0.012,0.724,0.015C251.348,48.574,251.435,48.579,251.44,48.584c0.005,0.005-0.071,0.01-0.225,0.016
						c-0.18,0.004-0.408,0.009-0.694,0.016c-0.649,0.008-1.556,0.018-2.715,0.032c-2.414,0.016-5.871,0.04-10.178,0.069
						c-8.737,0.028-20.919,0.066-34.84,0.11l-0.242,0.001l0-0.243c-0.001-2.07-0.003-4.183-0.004-6.331
						c0-1.074-0.001-2.157-0.001-3.248c0-0.545,0-1.093,0-1.642l0-0.825v-0.414v-0.207v-0.104v-0.052v-0.026v-0.013v-0.007v-0.003
						c0.496-0.496,0.139-0.138,0.251-0.248c19.874,0.04,37.541,0.075,48.65,0.097l0.152,0l-0.001,0.151
						c-0.036,4.066-0.064,7.291-0.083,9.534c-0.016,1.068-0.028,1.902-0.037,2.499c-0.007,0.26-0.012,0.468-0.016,0.634
						C251.45,48.521,251.445,48.589,251.44,48.584z"/>
				</g>
			</g>
		</g>
		<g>
			<g>
				<g>
					<path style="fill:#E0E0E0;" d="M258.036,35.713c-0.006-0.006-0.012-0.089-0.019-0.245c-0.005-0.185-0.012-0.409-0.019-0.682
						c-0.011-0.633-0.026-1.494-0.044-2.581c-0.023-2.257-0.056-5.444-0.096-9.363l0.178,0.178
						c-7.573,0.018-17.875,0.043-29.23,0.07c-0.223,0.221,0.299-0.302,0.246-0.247v0.003v0.007v0.013v0.027v0.053v0.106l0,0.212
						v0.422l0,0.841c0,0.56,0,1.116-0.001,1.669c-0.001,1.106-0.001,2.199-0.002,3.276c-0.003,2.153-0.006,4.241-0.009,6.241
						l-0.236-0.236c8.439,0.045,15.704,0.084,20.911,0.112c2.568,0.028,4.626,0.049,6.091,0.065c0.684,0.012,1.229,0.022,1.643,0.03
						C257.826,35.694,258.027,35.704,258.036,35.713c0.01,0.01-0.172,0.019-0.531,0.029c-0.401,0.007-0.93,0.017-1.594,0.03
						c-1.452,0.016-3.492,0.038-6.037,0.065c-5.247,0.028-12.567,0.067-21.07,0.112l-0.236,0.001l0-0.237
						c-0.003-2-0.006-4.088-0.009-6.241c-0.001-1.077-0.001-2.17-0.002-3.276c0-0.553,0-1.11-0.001-1.669l0-0.841v-0.422v-0.212
						v-0.106v-0.053v-0.027v-0.013v-0.007v-0.003c-0.054,0.052,0.47-0.471,0.25-0.249c11.355,0.027,21.657,0.052,29.23,0.07l0.18,0
						l-0.002,0.178c-0.04,3.965-0.073,7.189-0.096,9.472c-0.019,1.07-0.034,1.917-0.044,2.541
						C258.061,35.43,258.049,35.726,258.036,35.713z"/>
				</g>
			</g>
		</g>
	</g>
	<g>
		<g>
			<g>
				<g>
					<path style="fill:#E0E0E0;" d="M75.515,418.931c-0.005-0.005-0.01-0.084-0.015-0.234c-0.004-0.172-0.009-0.389-0.016-0.66
						c-0.009-0.606-0.021-1.45-0.037-2.533c-0.02-2.222-0.048-5.416-0.083-9.444l0.151,0.151
						c-11.109,0.022-28.776,0.057-48.65,0.097c0.11-0.11-0.25,0.247,0.245-0.248v0.003v0.007v0.013v0.026v0.052v0.103l0,0.207v0.414
						v0.825c0,0.549,0,1.097,0,1.642c0,1.091-0.001,2.174-0.001,3.248c-0.001,2.148-0.003,4.261-0.004,6.331l-0.242-0.242
						c13.854,0.044,25.977,0.083,34.671,0.11c4.331,0.029,7.806,0.053,10.234,0.069c1.181,0.014,2.105,0.024,2.767,0.032
						c0.298,0.006,0.536,0.012,0.724,0.016C75.423,418.921,75.509,418.926,75.515,418.931c0.005,0.005-0.071,0.01-0.225,0.016
						c-0.18,0.004-0.408,0.009-0.694,0.016c-0.649,0.008-1.557,0.018-2.715,0.032c-2.414,0.016-5.871,0.04-10.178,0.069
						c-8.737,0.028-20.919,0.066-34.84,0.11l-0.242,0.001l0-0.243c-0.001-2.07-0.003-4.183-0.004-6.331
						c0-1.074-0.001-2.157-0.001-3.248c0-0.545,0-1.093,0-1.642l0-0.825v-0.414v-0.207v-0.103v-0.052v-0.026v-0.013v-0.007v-0.003
						c0.496-0.496,0.139-0.138,0.251-0.248c19.874,0.04,37.541,0.075,48.65,0.097l0.152,0l-0.001,0.151
						c-0.036,4.066-0.064,7.29-0.083,9.534c-0.016,1.068-0.028,1.902-0.037,2.499c-0.006,0.26-0.012,0.468-0.016,0.634
						C75.525,418.867,75.52,418.936,75.515,418.931z"/>
				</g>
			</g>
		</g>
		<g>
			<g>
				<g>
					<path style="fill:#E0E0E0;" d="M82.111,406.06c-0.006-0.006-0.012-0.089-0.019-0.245c-0.005-0.185-0.012-0.409-0.019-0.682
						c-0.011-0.633-0.026-1.494-0.044-2.581c-0.023-2.257-0.056-5.444-0.096-9.363l0.178,0.178
						c-7.573,0.018-17.875,0.043-29.23,0.07c-0.223,0.221,0.299-0.302,0.246-0.247v0.003v0.007v0.013v0.026v0.053v0.106l0,0.211
						v0.422l0,0.841c0,0.56,0,1.116-0.001,1.669c-0.001,1.106-0.002,2.199-0.002,3.276c-0.003,2.153-0.006,4.241-0.009,6.241
						l-0.236-0.236c8.439,0.045,15.704,0.084,20.911,0.112c2.568,0.027,4.626,0.049,6.091,0.065c0.684,0.012,1.229,0.022,1.643,0.03
						C81.901,406.041,82.101,406.051,82.111,406.06c0.01,0.01-0.172,0.019-0.531,0.029c-0.401,0.007-0.93,0.017-1.594,0.03
						c-1.452,0.016-3.492,0.038-6.038,0.065c-5.247,0.028-12.567,0.067-21.07,0.112l-0.236,0.001l0-0.237
						c-0.003-2-0.006-4.088-0.009-6.241c-0.001-1.077-0.001-2.17-0.002-3.276c0-0.553,0-1.11-0.001-1.669l0-0.841v-0.422v-0.211
						v-0.106v-0.053v-0.026v-0.013v-0.007v-0.003c-0.054,0.052,0.47-0.471,0.25-0.249c11.355,0.027,21.657,0.052,29.23,0.07l0.18,0
						l-0.002,0.178c-0.04,3.965-0.073,7.189-0.096,9.472c-0.019,1.07-0.034,1.917-0.044,2.541
						C82.136,405.777,82.124,406.073,82.111,406.06z"/>
				</g>
			</g>
		</g>
	</g>
	<g>
		<g>
			<g>
				<rect x="396.738" y="48.602" style="fill:#EBEBEB;" width="48.653" height="12.871"/>
			</g>
		</g>
		<g>
			<g>
				<g>
					<path style="fill:#E0E0E0;" d="M424.818,75.03c-0.005-0.005-0.01-0.084-0.015-0.234c-0.004-0.172-0.009-0.389-0.016-0.66
						c-0.009-0.606-0.021-1.45-0.036-2.533c-0.02-2.222-0.048-5.416-0.083-9.444l0.151,0.151
						c-11.109,0.022-28.776,0.057-48.65,0.097c0.11-0.11-0.25,0.247,0.245-0.247v0.003v0.007v0.013v0.026v0.052v0.104v0.207l0,0.414
						v0.825c0,0.549,0,1.097,0,1.642c0,1.091-0.001,2.174-0.001,3.248c-0.001,2.148-0.003,4.261-0.004,6.331l-0.242-0.242
						c13.854,0.044,25.977,0.083,34.671,0.11c4.331,0.029,7.806,0.053,10.234,0.069c1.181,0.014,2.105,0.024,2.767,0.032
						c0.298,0.007,0.536,0.012,0.724,0.016C424.726,75.02,424.812,75.025,424.818,75.03c0.005,0.005-0.071,0.01-0.225,0.016
						c-0.18,0.004-0.408,0.009-0.694,0.016c-0.649,0.008-1.556,0.018-2.715,0.032c-2.414,0.016-5.871,0.04-10.178,0.069
						c-8.737,0.028-20.919,0.066-34.84,0.11l-0.242,0.001l0-0.243c-0.001-2.07-0.003-4.183-0.004-6.331
						c0-1.074-0.001-2.157-0.001-3.248c0-0.545,0-1.093,0-1.642l0-0.825V62.57v-0.207V62.26v-0.052v-0.026v-0.013v-0.007v-0.003
						c0.496-0.496,0.139-0.138,0.251-0.248c19.874,0.04,37.541,0.075,48.65,0.097l0.152,0l-0.001,0.151
						c-0.036,4.066-0.064,7.29-0.083,9.534c-0.016,1.068-0.028,1.902-0.037,2.499c-0.006,0.26-0.012,0.468-0.016,0.634
						C424.828,74.966,424.823,75.035,424.818,75.03z"/>
				</g>
			</g>
		</g>
	</g>
</g>
<g id="Background_Simple" style="display:none;">
	<g style="display:inline;">
		<path style="fill:#F5F5F5;" d="M184.353,54.587l-0.959-1.581c-8.087-13.326-22.707-21.359-38.122-20.384
			c-1.982,0.125-3.955,0.394-5.901,0.81c-14.015,3-26.21,13.599-31.265,27.172c-2.973,7.983-3.803,17.174-9.445,23.511
			c-7.342,8.247-19.807,8.506-30.766,8.164c-10.959-0.342-23.432-0.05-30.739,8.229c-4.576,5.185-6.03,12.559-5.661,19.502
			c0.977,18.384,13.787,34.822,30.079,42.993c16.292,8.171,35.473,8.902,53.303,5.308c24.978-5.035,48.732-18.863,63.009-40.22
			S195.777,77.638,184.353,54.587z"/>
	</g>
	<g style="display:inline;">
		
			<ellipse transform="matrix(0.2736 -0.9619 0.9619 0.2736 203.1913 525.2349)" style="fill:#F5F5F5;" cx="449.323" cy="128.096" rx="30.203" ry="30.203"/>
	</g>
</g>
<g id="Floor">
	<g>
		<g>
			<path style="fill:#263238;" d="M478.003,474.815c0,0.144-102.089,0.26-227.992,0.26c-125.947,0-228.014-0.117-228.014-0.26
				c0-0.144,102.067-0.26,228.014-0.26C375.914,474.555,478.003,474.671,478.003,474.815z"/>
		</g>
	</g>
</g>
<g id="ATM">
	<g>
		<g>
			<polygon style="fill:#E0E0E0;" points="236.965,70.993 190.177,244.748 190.177,474.815 400.479,474.815 400.479,71.985 			"/>
		</g>
		<g>
			<polygon style="fill:#E0E0E0;" points="197.285,248.93 233.291,109.18 253.209,135.227 227.162,237.5 			"/>
		</g>
		<g>
			<polygon style="fill:#E0E0E0;" points="233.291,109.18 332.46,109.18 327.68,135.124 253.209,135.227 			"/>
		</g>
		<g style="opacity:0.3;">
			<polygon points="197.285,248.93 233.291,109.18 253.209,135.227 227.162,237.5 			"/>
		</g>
		<g style="opacity:0.3;">
			<polygon points="233.291,109.18 332.46,109.18 327.68,135.124 253.209,135.227 			"/>
		</g>
		<g>
			<polygon style="fill:#E0E0E0;" points="227.162,237.5 309.249,237.5 327.68,135.124 253.209,135.227 			"/>
		</g>
		<g>
			<polygon style="fill:#E0E0E0;" points="197.285,248.93 309.303,248.93 309.303,237.5 227.162,237.5 			"/>
		</g>
		<g>
			<g>
				<path style="fill:#263238;" d="M205.78,452.914c0,0,0.61-0.014,1.776-0.021c1.174-0.005,2.902-0.013,5.162-0.022
					c4.531-0.012,11.188-0.029,19.734-0.051c17.077-0.025,41.692-0.062,71.887-0.107l-0.202,0.202
					c-0.016-44.906-0.036-103.234-0.059-166.776v-0.013l0.26,0.26c-34.9-0.007-68.224-0.013-98.559-0.019l0.242-0.242
					c-0.048,48.884-0.089,90.549-0.118,120.005c-0.028,14.739-0.05,26.421-0.066,34.429c-0.013,4.001-0.023,7.081-0.03,9.172
					c-0.006,1.038-0.011,1.828-0.015,2.369C205.79,452.635,205.78,452.914,205.78,452.914s-0.01-0.26-0.014-0.784
					c-0.003-0.535-0.008-1.316-0.014-2.342c-0.007-2.08-0.017-5.144-0.03-9.124c-0.015-7.995-0.037-19.659-0.066-34.374
					c-0.029-29.495-0.07-71.216-0.118-120.165l0-0.242l0.242,0c30.334-0.006,63.659-0.012,98.559-0.019l0.26,0v0.261v0.013
					c-0.022,63.542-0.043,121.869-0.059,166.776l0,0.202l-0.202,0c-30.247-0.045-54.905-0.082-72.012-0.107
					c-8.526-0.022-15.167-0.039-19.688-0.051c-2.244-0.01-3.96-0.017-5.125-0.022C206.361,452.929,205.78,452.914,205.78,452.914z"
					/>
			</g>
		</g>
		<g style="opacity:0.3;">
			<polygon points="319.326,474.815 319.326,237.5 349.426,71.675 400.479,71.985 400.479,474.815 			"/>
		</g>
		<g>
			<polygon style="fill:#FF725E;" points="240.898,100.748 245.386,83.782 336.392,83.782 332.01,100.748 			"/>
		</g>
		<g>
			<g>
				<path style="fill:#263238;" d="M197.285,248.93c0,0,0.173-0.088,0.522-0.232c0.372-0.15,0.888-0.357,1.55-0.624
					c1.391-0.546,3.396-1.333,5.959-2.338c5.197-2.011,12.649-4.894,21.773-8.424l-0.124,0.139
					c3.567-13.906,8.176-31.871,13.192-51.426c4.888-18.889,9.392-36.29,12.936-49.985l0.034,0.174
					c-6.043-8.215-10.994-14.947-14.452-19.648c-1.698-2.332-3.029-4.159-3.952-5.425c-0.437-0.611-0.776-1.085-1.021-1.427
					c-0.228-0.324-0.332-0.5-0.332-0.5s0.138,0.151,0.382,0.463c0.256,0.334,0.612,0.797,1.069,1.392
					c0.943,1.251,2.304,3.056,4.042,5.359c3.492,4.675,8.493,11.371,14.596,19.542l0.059,0.079l-0.025,0.096
					c-3.516,13.703-7.983,31.113-12.831,50.012c-5.059,19.545-9.706,37.5-13.304,51.398l-0.027,0.102l-0.098,0.037
					c-9.151,3.461-16.625,6.288-21.837,8.259c-2.58,0.962-4.599,1.714-5.998,2.236c-0.671,0.243-1.194,0.433-1.571,0.57
					C197.473,248.88,197.285,248.93,197.285,248.93z"/>
			</g>
		</g>
		<g>
			<path style="fill:#455A64;" d="M251.378,169.527c-0.302,1.055-5.579,21.124-5.579,21.124h12.364l5.476-21.124H251.378z"/>
		</g>
		<g>
			<g>
				<polygon style="fill:#455A64;" points="264.734,167.238 251.392,167.238 252.145,164.638 265.487,164.638 				"/>
			</g>
			<g>
				<g>
					<path style="fill:#263238;" d="M265.213,165.869c0,0.144-2.987,0.26-6.671,0.26c-3.685,0-6.671-0.117-6.671-0.26
						c0-0.144,2.986-0.26,6.671-0.26C262.226,165.609,265.213,165.725,265.213,165.869z"/>
				</g>
			</g>
		</g>
		<g>
			<g>
				<polygon style="fill:#455A64;" points="255.659,199.242 242.317,199.242 243.07,196.642 256.412,196.642 				"/>
			</g>
			<g>
				<g>
					<path style="fill:#263238;" d="M256.138,197.873c0,0.144-2.987,0.26-6.671,0.26c-3.685,0-6.671-0.117-6.671-0.26
						c0-0.144,2.986-0.26,6.671-0.26C253.151,197.613,256.138,197.729,256.138,197.873z"/>
				</g>
			</g>
		</g>
		<g>
			<polygon style="fill:#455A64;" points="275.362,230.213 236.965,230.213 238.168,223.738 276.566,223.738 			"/>
		</g>
		<g>
			<g>
				<path style="fill:#263238;" d="M274.07,226.976c0,0.144-7.748,0.261-17.304,0.261c-9.559,0-17.306-0.117-17.306-0.261
					c0-0.144,7.747-0.26,17.306-0.26C266.322,226.715,274.07,226.832,274.07,226.976z"/>
			</g>
		</g>
		<g>
			<polygon style="fill:#263238;" points="251.871,177.504 259.234,177.504 256.547,173.209 			"/>
		</g>
		<g>
			<path style="fill:#263238;" d="M253.209,177.504c-0.014,0-2.655,9.503-2.655,9.503h5.18l2.133-9.503H253.209z"/>
		</g>
		<g>
			<g>
				<polygon style="fill:#263238;" points="274.409,148.099 260.042,206.909 314.757,206.909 325.61,148.359 				"/>
			</g>
			<g>
				<polygon style="fill:#455A64;" points="280.564,153.917 269.439,200.524 315.926,200.602 324.614,153.731 				"/>
			</g>
			<g>
				<g>
					<path style="fill:#455A64;" d="M274.534,148.459c0.095-0.108,1.525,1.058,3.194,2.604c1.67,1.547,2.941,2.884,2.84,2.986
						c-0.101,0.102-1.531-1.063-3.194-2.604C275.711,149.904,274.44,148.567,274.534,148.459z"/>
				</g>
			</g>
			<g>
				<g>
					<path style="fill:#455A64;" d="M269.168,200.212c0.096,0.096-1.685,1.999-4.243,3.931c-2.553,1.941-4.867,3.14-4.933,3.021
						c-0.077-0.131,2.095-1.517,4.619-3.436C267.14,201.818,269.063,200.102,269.168,200.212z"/>
				</g>
			</g>
		</g>
		<g style="opacity:0.1;">
			<polygon points="197.285,248.93 309.303,248.93 309.303,237.5 227.162,237.5 			"/>
		</g>
		<g>
			<path style="fill:#FFFFFF;" d="M290.237,173.905c0.265,0.128,0.68,0.265,1.245,0.411c0.62,0.155,1.134,0.315,1.539,0.479
				c0.406,0.164,0.755,0.415,1.047,0.753s0.439,0.78,0.439,1.327c0,0.912-0.338,1.669-1.013,2.271
				c-0.676,0.602-1.597,0.966-2.764,1.094l-0.302,1.492h-1.642l0.301-1.492c-0.647-0.055-1.252-0.171-1.813-0.349
				c-0.561-0.178-1.024-0.395-1.389-0.65l1.081-2.011c0.483,0.31,0.996,0.545,1.539,0.705c0.542,0.16,1.092,0.239,1.648,0.239
				c0.521,0,0.924-0.075,1.211-0.226c0.287-0.151,0.431-0.358,0.431-0.623c0-0.228-0.13-0.406-0.39-0.534
				c-0.26-0.128-0.668-0.265-1.225-0.411c-0.62-0.164-1.136-0.333-1.546-0.506c-0.41-0.173-0.764-0.431-1.061-0.773
				c-0.296-0.342-0.444-0.795-0.444-1.361c0-0.949,0.351-1.726,1.054-2.333c0.702-0.606,1.664-0.959,2.887-1.06l0.287-1.478h1.642
				l-0.301,1.505c1.013,0.109,1.843,0.369,2.49,0.78l-0.999,1.998c-0.364-0.237-0.773-0.417-1.225-0.541
				c-0.451-0.123-0.914-0.185-1.389-0.185c-0.538,0-0.96,0.087-1.266,0.26c-0.306,0.174-0.463,0.397-0.472,0.671
				C289.84,173.596,289.972,173.778,290.237,173.905z"/>
			<path style="fill:#FFFFFF;" d="M299.103,173.905c0.265,0.128,0.68,0.265,1.245,0.411c0.62,0.155,1.134,0.315,1.539,0.479
				c0.406,0.164,0.755,0.415,1.047,0.753c0.292,0.337,0.438,0.78,0.438,1.327c0,0.912-0.338,1.669-1.013,2.271
				c-0.676,0.602-1.597,0.966-2.764,1.094l-0.302,1.492h-1.642l0.301-1.492c-0.647-0.055-1.252-0.171-1.813-0.349
				c-0.562-0.178-1.025-0.395-1.389-0.65l1.081-2.011c0.483,0.31,0.996,0.545,1.539,0.705c0.542,0.16,1.092,0.239,1.648,0.239
				c0.521,0,0.924-0.075,1.211-0.226c0.287-0.151,0.431-0.358,0.431-0.623c0-0.228-0.13-0.406-0.39-0.534s-0.668-0.265-1.225-0.411
				c-0.62-0.164-1.136-0.333-1.546-0.506c-0.41-0.173-0.764-0.431-1.061-0.773c-0.296-0.342-0.444-0.795-0.444-1.361
				c0-0.949,0.351-1.726,1.054-2.333c0.702-0.606,1.664-0.959,2.887-1.06l0.287-1.478h1.642l-0.301,1.505
				c1.013,0.109,1.843,0.369,2.49,0.78l-0.999,1.998c-0.364-0.237-0.772-0.417-1.225-0.541c-0.451-0.123-0.914-0.185-1.389-0.185
				c-0.538,0-0.96,0.087-1.266,0.26c-0.306,0.174-0.463,0.397-0.472,0.671C298.707,173.596,298.839,173.778,299.103,173.905z"/>
			<path style="fill:#FFFFFF;" d="M307.969,173.905c0.265,0.128,0.68,0.265,1.245,0.411c0.62,0.155,1.134,0.315,1.539,0.479
				c0.406,0.164,0.755,0.415,1.047,0.753s0.439,0.78,0.439,1.327c0,0.912-0.338,1.669-1.013,2.271
				c-0.676,0.602-1.597,0.966-2.764,1.094l-0.302,1.492h-1.642l0.301-1.492c-0.648-0.055-1.252-0.171-1.813-0.349
				c-0.562-0.178-1.024-0.395-1.389-0.65l1.081-2.011c0.483,0.31,0.996,0.545,1.539,0.705c0.542,0.16,1.092,0.239,1.648,0.239
				c0.521,0,0.924-0.075,1.211-0.226c0.287-0.151,0.431-0.358,0.431-0.623c0-0.228-0.13-0.406-0.39-0.534s-0.668-0.265-1.225-0.411
				c-0.62-0.164-1.136-0.333-1.546-0.506c-0.41-0.173-0.764-0.431-1.061-0.773c-0.296-0.342-0.444-0.795-0.444-1.361
				c0-0.949,0.351-1.726,1.054-2.333c0.702-0.606,1.664-0.959,2.887-1.06l0.287-1.478h1.642l-0.301,1.505
				c1.013,0.109,1.843,0.369,2.49,0.78l-0.999,1.998c-0.364-0.237-0.772-0.417-1.225-0.541c-0.451-0.123-0.914-0.185-1.389-0.185
				c-0.538,0-0.96,0.087-1.266,0.26c-0.306,0.174-0.463,0.397-0.472,0.671C307.573,173.596,307.705,173.778,307.969,173.905z"/>
		</g>
		<g>
			<path style="fill:#FFFFFF;" d="M277.932,95.814h-4.078l-1.107,1.861h-2.86l6.143-9.578h2.668l2.313,9.578h-2.695L277.932,95.814z
				 M277.521,93.816l-0.642-3.106l-1.834,3.106H277.521z"/>
			<path style="fill:#FFFFFF;" d="M284.828,90.245h-2.941l0.438-2.148h8.579l-0.439,2.148h-2.928l-1.491,7.43h-2.709L284.828,90.245
				z"/>
			<path style="fill:#FFFFFF;" d="M303.025,88.097l-1.888,9.578h-2.504l0.985-5.049l-3.189,4.105h-1.19l-1.737-4.105l-1.013,5.049
				H290l1.916-9.578h2.202l2.244,5.541l4.352-5.541H303.025z"/>
		</g>
		<g style="opacity:0.3;">
			<path d="M294.189,359.544c0,2.546-2.064,4.61-4.61,4.61c-2.546,0-4.61-2.064-4.61-4.61c0-2.546,2.064-4.61,4.61-4.61
				C292.125,354.934,294.189,356.998,294.189,359.544z"/>
		</g>
		<g>
			<g>
				<path style="fill:#263238;" d="M309.249,237.5c0,0.144-18.344,0.26-40.967,0.26c-22.631,0-40.971-0.117-40.971-0.26
					s18.34-0.26,40.971-0.26C290.905,237.24,309.249,237.356,309.249,237.5z"/>
			</g>
		</g>
		<g>
			<g>
				<path style="fill:#263238;" d="M328.623,135.137c0,0.144-16.887,0.26-37.714,0.26c-20.834,0-37.717-0.117-37.717-0.26
					c0-0.144,16.884-0.26,37.717-0.26C311.735,134.877,328.623,134.994,328.623,135.137z"/>
			</g>
		</g>
		<g>
			<g>
				<path style="fill:#263238;" d="M232.825,266.583c-0.011-0.011-0.021-0.234-0.033-0.655c-0.01-0.459-0.023-1.067-0.039-1.834
					c-0.021-1.626-0.051-3.92-0.088-6.8l0.16,0.159c-7.843,0.061-20.319,0.101-34.338,0.101c0.115-0.116-0.262,0.26,0.258-0.26
					v0.002v0.005v0.009v0.019v0.037v0.075v0.15l0,0.299v0.596l0,1.186c0,0.788-0.001,1.57-0.001,2.345
					c-0.002,1.551-0.003,3.075-0.005,4.565l-0.254-0.254c9.759,0.046,18.296,0.087,24.448,0.116c3.04,0.031,5.489,0.055,7.229,0.073
					c0.819,0.014,1.47,0.025,1.961,0.033C232.573,266.561,232.814,266.572,232.825,266.583c0.011,0.011-0.208,0.022-0.638,0.033
					c-0.477,0.008-1.11,0.019-1.906,0.033c-1.727,0.017-4.155,0.042-7.171,0.072c-6.197,0.029-14.796,0.07-24.625,0.116
					l-0.254,0.001l0-0.256c-0.001-1.491-0.003-3.014-0.004-4.565c0-0.775-0.001-1.557-0.001-2.345l0-1.186l0-0.596v-0.299v-0.15
					v-0.075v-0.037v-0.019v-0.009v-0.005v-0.002c0.521-0.521,0.146-0.144,0.262-0.261c14.019,0,26.494,0.039,34.338,0.101
					l0.162,0.001l-0.002,0.158c-0.037,2.92-0.067,5.246-0.088,6.895c-0.016,0.752-0.029,1.348-0.039,1.798
					C232.846,266.39,232.835,266.593,232.825,266.583z"/>
			</g>
		</g>
		<g>
			<g>
				<path style="fill:#263238;" d="M230.378,261.656c0,0.144-6.431,0.26-14.363,0.26c-7.934,0-14.364-0.117-14.364-0.26
					c0-0.144,6.43-0.26,14.364-0.26C223.946,261.396,230.378,261.512,230.378,261.656z"/>
			</g>
		</g>
	</g>
</g>
<g id="Speech_Bubble">
	<g>
		<g>
			<g>
				<g>
					<g>
						<g>
							<g>
								<path style="fill:#FFFFFF;" d="M192.625,107.926c-6.064,0.351-10.154-0.768-15.773-3.653l-9.498,3.213l2.738-9.601
									c-3.427-4.093-4.323-8.432-4.655-14.171c-0.822-14.194,10.018-26.366,24.212-27.188
									c14.194-0.822,26.366,10.018,27.188,24.212C217.658,94.932,206.818,107.104,192.625,107.926z"/>
							</g>
							<g>
								<g>
									<path style="fill:#263238;" d="M192.625,107.926c-0.001-0.009,0.149-0.034,0.442-0.075
										c0.316-0.041,0.746-0.096,1.298-0.167c0.285-0.039,0.606-0.065,0.955-0.125c0.348-0.078,0.726-0.162,1.134-0.254
										c0.411-0.092,0.852-0.19,1.322-0.296c0.46-0.151,0.949-0.312,1.466-0.481c1.052-0.293,2.137-0.85,3.345-1.385
										c0.578-0.325,1.18-0.663,1.806-1.015c0.617-0.367,1.209-0.825,1.849-1.257c2.471-1.839,5.001-4.386,6.958-7.751
										c1.919-3.363,3.309-7.514,3.439-12.084c-0.023-1.14,0.029-2.303-0.153-3.471c-0.081-0.583-0.094-1.182-0.231-1.764
										c-0.125-0.585-0.252-1.174-0.379-1.768c-0.637-2.336-1.508-4.705-2.859-6.889c-1.338-2.183-3.012-4.234-5.009-6.026
										c-2.019-1.768-4.364-3.238-6.922-4.334c-5.106-2.252-11.189-2.626-16.88-1.07c-2.23,0.632-4.335,1.578-6.289,2.731
										c-1.898,1.231-3.727,2.568-5.213,4.219l-0.581,0.592l-0.522,0.641l-1.035,1.278l-0.902,1.362l-0.449,0.677l-0.38,0.714
										c-0.253,0.475-0.505,0.949-0.756,1.42c-0.205,0.493-0.41,0.984-0.614,1.473c-0.451,0.963-0.675,1.998-0.999,2.988
										c-1.085,4.043-0.924,8.152-0.408,11.97c0.277,1.907,0.719,3.747,1.427,5.432c0.699,1.69,1.667,3.203,2.769,4.537
										l0.072,0.087l-0.031,0.107c-0.991,3.441-1.909,6.629-2.762,9.594l-0.24-0.228c3.549-1.187,6.7-2.24,9.509-3.18l0.061-0.021
										l0.057,0.029c2.303,1.188,4.432,2.126,6.367,2.702c1.929,0.597,3.641,0.852,5.032,0.981
										c1.394,0.123,2.473,0.107,3.199,0.112c0.346-0.006,0.618-0.011,0.824-0.015
										C192.53,107.916,192.624,107.919,192.625,107.926c0,0-1.503,0.222-4.316,0.057c-1.401-0.104-3.133-0.336-5.087-0.916
										c-1.96-0.559-4.115-1.484-6.439-2.659l0.118,0.009c-2.803,0.959-5.947,2.035-9.487,3.246l-0.337,0.115l0.097-0.344
										c0.839-2.968,1.741-6.162,2.714-9.607l0.041,0.194c-1.131-1.357-2.131-2.907-2.854-4.637
										c-0.733-1.726-1.189-3.605-1.476-5.538c-0.533-3.847-0.71-8.034,0.389-12.162c0.327-1.01,0.556-2.065,1.013-3.048
										c0.207-0.499,0.415-1,0.624-1.503c0.255-0.481,0.511-0.965,0.768-1.45l0.387-0.729l0.456-0.691
										c0.305-0.461,0.611-0.925,0.918-1.39l1.054-1.305l0.532-0.654l0.592-0.605c1.515-1.684,3.378-3.052,5.315-4.308
										c1.993-1.178,4.142-2.144,6.418-2.789c5.807-1.59,12.013-1.202,17.221,1.102c2.608,1.121,4.997,2.625,7.051,4.431
										c2.032,1.831,3.734,3.925,5.091,6.153c1.37,2.229,2.252,4.645,2.892,7.025c0.127,0.605,0.254,1.205,0.379,1.801
										c0.137,0.594,0.149,1.203,0.229,1.796c0.179,1.189,0.124,2.372,0.141,3.531c-0.151,4.646-1.586,8.858-3.553,12.257
										c-2.005,3.401-4.587,5.963-7.104,7.8c-0.651,0.431-1.254,0.888-1.881,1.253c-0.636,0.349-1.248,0.684-1.835,1.006
										c-1.227,0.527-2.327,1.074-3.392,1.355c-0.523,0.163-1.018,0.317-1.484,0.462c-0.476,0.098-0.921,0.189-1.336,0.274
										c-0.412,0.083-0.794,0.16-1.145,0.23c-0.352,0.052-0.676,0.07-0.962,0.101c-0.556,0.049-0.989,0.088-1.307,0.116
										C192.776,107.928,192.625,107.935,192.625,107.926z"/>
								</g>
							</g>
						</g>
					</g>
				</g>
			</g>
		</g>
		<g>
			<path style="fill:#263238;" d="M195.62,86.708c-0.767,0.779-1.877,1.278-3.333,1.497v2.145h-2.318v-2.067
				c-0.966-0.064-1.881-0.229-2.744-0.493c-0.863-0.264-1.578-0.589-2.144-0.976l1.256-2.82c0.605,0.399,1.307,0.722,2.105,0.966
				c0.798,0.245,1.584,0.367,2.357,0.367c1.468,0,2.202-0.367,2.202-1.101c0-0.386-0.21-0.673-0.628-0.86
				c-0.418-0.187-1.091-0.383-2.018-0.589c-1.018-0.219-1.868-0.454-2.55-0.706c-0.683-0.251-1.269-0.653-1.758-1.207
				c-0.49-0.554-0.734-1.301-0.734-2.241c0-1.107,0.399-2.057,1.198-2.849c0.798-0.792,1.951-1.278,3.458-1.459V72.19h2.318v2.086
				c0.734,0.065,1.439,0.193,2.115,0.387c0.676,0.193,1.278,0.444,1.807,0.753l-1.179,2.84c-1.288-0.696-2.537-1.044-3.748-1.044
				c-0.76,0-1.314,0.113-1.662,0.338c-0.348,0.225-0.521,0.519-0.521,0.879c0,0.36,0.206,0.631,0.618,0.811
				c0.412,0.181,1.075,0.367,1.99,0.561c1.03,0.219,1.884,0.454,2.56,0.705c0.676,0.251,1.262,0.65,1.758,1.198
				c0.496,0.547,0.744,1.291,0.744,2.231C196.77,85.005,196.387,85.929,195.62,86.708z"/>
		</g>
	</g>
</g>
<g id="Plant">
	<g>
		<g>
			<g>
				<g>
					<path style="fill:#FF725E;" d="M434.3,415.39c2.763,1.199,4.795,3.753,5.815,6.587c1.02,2.834,1.112,5.93,0.773,8.923
						c-0.656,5.79-3.947,11.635-7.489,16.262c-4.876-4.255-5.998-11.679-6.33-15.48C426.542,425.673,429.241,414.494,434.3,415.39"
						/>
				</g>
			</g>
		</g>
		<g>
			<g>
				<g>
					<path style="fill:#FF725E;" d="M439.066,456.718c-0.781-3.273,0.581-6.863,3.093-9.101c2.512-2.238,6.022-3.185,9.376-2.929
						c1.551,0.119,3.227,0.571,4.116,1.848c0.83,1.194,0.737,2.86,0.063,4.149c-0.674,1.289-1.84,2.252-3.072,3.025
						C448.418,456.362,443.843,458.152,439.066,456.718"/>
				</g>
			</g>
		</g>
		<g>
			<g>
				<g>
					<g>
						<path style="fill:#263238;" d="M432.813,474.473c-0.029-0.007,0.038-0.429,0.174-1.188c0.153-0.836,0.352-1.917,0.59-3.216
							c0.539-2.687,1.231-6.536,3.319-10.273c2.06-3.727,4.944-6.472,7.372-7.834c1.206-0.698,2.261-1.113,3.006-1.33
							c0.368-0.124,0.668-0.171,0.866-0.22c0.2-0.042,0.306-0.057,0.309-0.043c0.034,0.094-1.689,0.405-4.027,1.848
							c-2.344,1.402-5.131,4.12-7.157,7.784c-2.047,3.659-2.783,7.455-3.395,10.127c-0.295,1.347-0.535,2.439-0.721,3.189
							C432.962,474.069,432.84,474.479,432.813,474.473z"/>
					</g>
				</g>
			</g>
		</g>
		<g>
			<g>
				<g>
					<g>
						<path style="fill:#263238;" d="M432.997,424.084c0.015-0.001,0.035,0.178,0.06,0.519c0.023,0.386,0.052,0.88,0.089,1.492
							c0.069,1.297,0.146,3.173,0.22,5.493c0.15,4.639,0.268,11.053,0.238,18.136c-0.032,7.086-0.205,13.498-0.396,18.136
							c-0.095,2.319-0.187,4.195-0.268,5.491c-0.042,0.612-0.075,1.106-0.101,1.491c-0.028,0.341-0.05,0.519-0.064,0.519
							c-0.014-0.001-0.021-0.18-0.021-0.522c0.006-0.386,0.013-0.882,0.022-1.494c0.033-1.35,0.078-3.214,0.134-5.494
							c0.114-4.639,0.24-11.047,0.272-18.128c0.029-7.078-0.041-13.487-0.115-18.127c-0.036-2.28-0.065-4.144-0.086-5.495
							c-0.004-0.613-0.007-1.109-0.009-1.495C432.974,424.264,432.982,424.085,432.997,424.084z"/>
					</g>
				</g>
			</g>
		</g>
		<g>
			<g>
				<g>
					<path style="fill:#FF725E;" d="M430.63,460.243c-1.11-7.006-5.831-13.34-12.228-16.404c-1.629-0.78-3.757-1.29-5.096-0.079
						c-1.341,1.214-1.041,3.393-0.385,5.079c2.731,7.016,10.066,11.969,17.594,11.88"/>
				</g>
			</g>
		</g>
		<g>
			<g>
				<g>
					<g>
						<path style="fill:#263238;" d="M419.192,449.331c0.013-0.026,0.379,0.135,1.035,0.451c0.329,0.156,0.731,0.348,1.169,0.623
							c0.438,0.274,0.967,0.541,1.488,0.934c0.532,0.376,1.126,0.775,1.703,1.282c0.606,0.472,1.195,1.042,1.812,1.647
							c1.201,1.238,2.41,2.716,3.444,4.424c1.017,1.718,1.754,3.482,2.268,5.129c0.232,0.832,0.455,1.622,0.573,2.382
							c0.165,0.751,0.226,1.464,0.293,2.112c0.09,0.647,0.059,1.24,0.081,1.756c0.024,0.517-0.01,0.962-0.039,1.324
							c-0.053,0.726-0.096,1.124-0.125,1.122c-0.095-0.004,0.071-1.611-0.214-4.171c-0.084-0.638-0.161-1.339-0.339-2.075
							c-0.13-0.746-0.363-1.519-0.601-2.335c-0.527-1.614-1.26-3.339-2.259-5.027c-1.015-1.678-2.193-3.137-3.36-4.37
							c-0.6-0.602-1.171-1.173-1.759-1.65c-0.559-0.511-1.135-0.918-1.649-1.306C420.617,450.082,419.149,449.413,419.192,449.331z"
							/>
					</g>
				</g>
			</g>
		</g>
	</g>
</g>
<g id="Character">
	<g>
		<g>
			<g>
				<g>
					<g>
						<g>
							<g>
								<g>
									<g>
										<g>
											<g>
												<g>
													<g>
														<g>
															<g>
																<g>
																	<path style="fill:#455A64;" d="M110.856,415.226l-26.608,24.337l30.11,33.259
																		c3.001-3.071-6.197-26.052-6.197-26.052l16.623-16.077L110.856,415.226z"/>
																</g>
															</g>
														</g>
													</g>
												</g>
											</g>
										</g>
									</g>
								</g>
							</g>
						</g>
					</g>
					<g>
						<g>
							<g>
								<g>
									<g>
										<g>
											<g>
												<g>
													<g>
														<g>
															<g>
																<g>
																	<g>
																		<path style="fill:#FFFFFF;" d="M100.291,435.182c-0.759-0.484-1.885-0.274-2.4,0.464
																			c-0.515,0.738-0.311,1.885,0.439,2.383c0.75,0.497,2.11,0.286,2.539-0.505c0.429-0.791,0.116-2.125-0.732-2.428"
																			/>
																	</g>
																</g>
															</g>
														</g>
													</g>
												</g>
											</g>
										</g>
									</g>
								</g>
							</g>
						</g>
					</g>
					<g>
						<g>
							<g>
								<g>
									<g>
										<g>
											<g>
												<g>
													<g>
														<g>
															<g>
																<g>
																	<path style="fill:#263238;" d="M84.247,439.564l2.779-2.571l27.734,33.087c0,0,0.683,2.069-0.517,2.838
																		L84.247,439.564z"/>
																</g>
															</g>
														</g>
													</g>
												</g>
											</g>
										</g>
									</g>
								</g>
							</g>
						</g>
					</g>
					<g>
						<g>
							<g>
								<g>
									<g>
										<g>
											<g>
												<g>
													<g>
														<g>
															<g>
																<g>
																	<g>
																		<path style="fill:#FFFFFF;" d="M108.817,447.157c-0.167,0.142-0.976-0.603-2.222-0.93
																			c-1.237-0.359-2.313-0.134-2.384-0.341c-0.104-0.178,1.086-0.815,2.587-0.393
																			C108.303,445.9,108.998,447.057,108.817,447.157z"/>
																	</g>
																</g>
															</g>
														</g>
													</g>
												</g>
											</g>
										</g>
									</g>
								</g>
							</g>
						</g>
					</g>
					<g>
						<g>
							<g>
								<g>
									<g>
										<g>
											<g>
												<g>
													<g>
														<g>
															<g>
																<g>
																	<g>
																		<path style="fill:#FFFFFF;" d="M110.533,451.952c-0.124,0.18-1.037-0.273-2.223-0.203
																			c-1.188,0.035-2.057,0.568-2.196,0.4c-0.164-0.129,0.61-1.094,2.087-1.153
																			C109.675,450.923,110.684,451.808,110.533,451.952z"/>
																	</g>
																</g>
															</g>
														</g>
													</g>
												</g>
											</g>
										</g>
									</g>
								</g>
							</g>
						</g>
					</g>
					<g>
						<g>
							<g>
								<g>
									<g>
										<g>
											<g>
												<g>
													<g>
														<g>
															<g>
																<g>
																	<g>
																		<path style="fill:#FFFFFF;" d="M108.151,457.713c-0.206-0.142,0.275-1.027,1.706-1.465
																			c1.265-0.397,2.309,0.051,2.236,0.242c-0.051,0.213-0.974,0.152-2.01,0.486
																			C109.04,457.286,108.313,457.86,108.151,457.713z"/>
																	</g>
																</g>
															</g>
														</g>
													</g>
												</g>
											</g>
										</g>
									</g>
								</g>
							</g>
						</g>
					</g>
					<g>
						<g>
							<g>
								<g>
									<g>
										<g>
											<g>
												<g>
													<g>
														<g>
															<g>
																<g>
																	<g>
																		<path style="fill:#FFFFFF;" d="M112.472,443.315c-0.21,0.066-0.66-0.882-1.553-1.743
																			c-0.876-0.88-1.831-1.315-1.768-1.526c0.032-0.2,1.265-0.047,2.302,0.982
																			C112.499,442.05,112.671,443.28,112.472,443.315z"/>
																	</g>
																</g>
															</g>
														</g>
													</g>
												</g>
											</g>
										</g>
									</g>
								</g>
							</g>
						</g>
					</g>
					<g>
						<g>
							<g>
								<g>
									<g>
										<g>
											<g>
												<g>
													<g>
														<g>
															<g>
																<g>
																	<g>
																		<path style="fill:#FFFFFF;" d="M115.701,438.951c-0.065,0.063-0.747-0.488-1.5-1.673
																			c-0.374-0.59-0.751-1.343-1.042-2.227c-0.145-0.443-0.268-0.917-0.358-1.416c-0.04-0.242-0.105-0.514-0.064-0.858
																			c0.006-0.333,0.345-0.825,0.796-0.857c0.41-0.061,0.793,0.14,1.016,0.375c0.23,0.238,0.36,0.481,0.479,0.703
																			c0.246,0.451,0.437,0.91,0.582,1.357c0.286,0.897,0.388,1.744,0.382,2.449c-0.016,1.418-0.384,2.231-0.466,2.204
																			c-0.12-0.025,0.048-0.861-0.073-2.18c-0.061-0.657-0.21-1.432-0.508-2.243c-0.151-0.405-0.339-0.817-0.571-1.223
																			c-0.227-0.436-0.495-0.738-0.734-0.687c-0.09,0.021-0.117,0.039-0.153,0.205c-0.026,0.162,0.01,0.389,0.049,0.629
																			c0.074,0.468,0.176,0.915,0.294,1.335c0.237,0.841,0.543,1.573,0.841,2.169
																			C115.268,438.207,115.791,438.874,115.701,438.951z"/>
																	</g>
																</g>
															</g>
														</g>
													</g>
												</g>
											</g>
										</g>
									</g>
								</g>
							</g>
						</g>
					</g>
					<g>
						<g>
							<g>
								<g>
									<g>
										<g>
											<g>
												<g>
													<g>
														<g>
															<g>
																<g>
																	<g>
																		<path style="fill:#FFFFFF;" d="M115.276,438.95c-0.077-0.035,0.213-0.884,1.211-1.896
																			c0.497-0.5,1.178-1.018,2.029-1.424c0.427-0.2,0.894-0.37,1.395-0.491c0.505-0.102,1.16-0.263,1.803,0.301
																			c0.31,0.318,0.301,0.824,0.166,1.116c-0.125,0.314-0.299,0.51-0.456,0.724c-0.333,0.413-0.721,0.75-1.121,1.017
																			c-0.802,0.536-1.654,0.78-2.365,0.846c-1.45,0.13-2.258-0.372-2.215-0.435c0.032-0.128,0.858,0.154,2.137-0.099
																			c0.63-0.124,1.366-0.394,2.042-0.89c0.338-0.246,0.66-0.547,0.935-0.902c0.306-0.372,0.471-0.763,0.315-0.863
																			c-0.147-0.168-0.668-0.208-1.073-0.089c-0.453,0.099-0.881,0.24-1.276,0.405c-0.79,0.336-1.447,0.766-1.954,1.182
																			C115.832,438.292,115.381,439.016,115.276,438.95z"/>
																	</g>
																</g>
															</g>
														</g>
													</g>
												</g>
											</g>
										</g>
									</g>
								</g>
							</g>
						</g>
					</g>
				</g>
			</g>
			<g>
				<g>
					<g>
						<g>
							<g>
								<g>
									<g>
										<g>
											<g>
												<g>
													<g>
														<g>
															<g>
																<g>
																	<path style="fill:#455A64;" d="M104.431,438.681l0.338,36.058l44.864-0.19
																		c-0.281-4.285-23.527-12.791-23.527-12.791l0.731-23.112L104.431,438.681z"/>
																</g>
															</g>
														</g>
													</g>
												</g>
											</g>
										</g>
									</g>
								</g>
							</g>
						</g>
					</g>
					<g>
						<g>
							<g>
								<g>
									<g>
										<g>
											<g>
												<g>
													<g>
														<g>
															<g>
																<g>
																	<g>
																		<path style="fill:#FFFFFF;" d="M112.224,459.873c-0.867,0.241-1.463,1.22-1.258,2.096
																			c0.205,0.876,1.195,1.491,2.067,1.265c0.871-0.226,1.622-1.379,1.32-2.227c-0.302-0.848-1.504-1.506-2.296-1.077"
																			/>
																	</g>
																</g>
															</g>
														</g>
													</g>
												</g>
											</g>
										</g>
									</g>
								</g>
							</g>
						</g>
					</g>
					<g>
						<g>
							<g>
								<g>
									<g>
										<g>
											<g>
												<g>
													<g>
														<g>
															<g>
																<g>
																	<path style="fill:#263238;" d="M104.765,474.815l-0.054-3.861l43.149,1.463c0,0,1.995,0.874,1.766,2.28
																		L104.765,474.815z"/>
																</g>
															</g>
														</g>
													</g>
												</g>
											</g>
										</g>
									</g>
								</g>
							</g>
						</g>
					</g>
					<g>
						<g>
							<g>
								<g>
									<g>
										<g>
											<g>
												<g>
													<g>
														<g>
															<g>
																<g>
																	<g>
																		<path style="fill:#263238;" d="M126.832,461.527c-0.007,0.219-1.101,0.323-2.176,1.032
																			c-1.093,0.681-1.645,1.632-1.847,1.546c-0.202-0.042,0.119-1.353,1.436-2.188
																			C125.552,461.07,126.878,461.326,126.832,461.527z"/>
																	</g>
																</g>
															</g>
														</g>
													</g>
												</g>
											</g>
										</g>
									</g>
								</g>
							</g>
						</g>
					</g>
					<g>
						<g>
							<g>
								<g>
									<g>
										<g>
											<g>
												<g>
													<g>
														<g>
															<g>
																<g>
																	<g>
																		<path style="fill:#263238;" d="M131.545,463.453c0.051,0.212-0.896,0.589-1.636,1.519
																			c-0.768,0.908-0.951,1.911-1.169,1.902c-0.206,0.035-0.363-1.247,0.579-2.386
																			C130.251,463.342,131.54,463.244,131.545,463.453z"/>
																	</g>
																</g>
															</g>
														</g>
													</g>
												</g>
											</g>
										</g>
									</g>
								</g>
							</g>
						</g>
					</g>
					<g>
						<g>
							<g>
								<g>
									<g>
										<g>
											<g>
												<g>
													<g>
														<g>
															<g>
																<g>
																	<g>
																		<path style="fill:#263238;" d="M134.242,469.074c-0.199,0.048-0.508-1.046,0.049-2.248
																			c0.549-1.207,1.58-1.684,1.674-1.502c0.124,0.18-0.538,0.826-0.98,1.82
																			C134.518,468.127,134.459,469.051,134.242,469.074z"/>
																	</g>
																</g>
															</g>
														</g>
													</g>
												</g>
											</g>
										</g>
									</g>
								</g>
							</g>
						</g>
					</g>
					<g>
						<g>
							<g>
								<g>
									<g>
										<g>
											<g>
												<g>
													<g>
														<g>
															<g>
																<g>
																	<g>
																		<path style="fill:#263238;" d="M126.414,456.241c-0.091,0.2-1.097-0.098-2.335-0.009
																			c-1.24,0.064-2.202,0.484-2.316,0.297c-0.127-0.158,0.81-0.973,2.269-1.058
																			C125.49,455.376,126.521,456.069,126.414,456.241z"/>
																	</g>
																</g>
															</g>
														</g>
													</g>
												</g>
											</g>
										</g>
									</g>
								</g>
							</g>
						</g>
					</g>
				</g>
			</g>
			<g>
				<g>
					<g>
						<g>
							<g>
								<g>
									<g>
										<g>
											<g>
												<g>
													<g>
														<path style="fill:#263238;" d="M103.383,232.945c0,0-2.861,10.064-3.189,10.789
															c-2.944,6.518-10.717,22.633-10.717,22.633s-5.91,20.99-4.591,30.884c1.319,9.894,10.161,77.559,10.161,77.559
															s-1.739,53.643,5.826,77.509l1.397,6.33l25.292-4.49l0,0l0,0l5.603-132.788l15.433-87.795L103.383,232.945z"/>
													</g>
												</g>
											</g>
										</g>
									</g>
								</g>
							</g>
						</g>
					</g>
					<g>
						<g>
							<g>
								<g>
									<g>
										<g>
											<g>
												<g>
													<path style="fill:#263238;" d="M166.499,244.994c0,0,11.124,90.43,12.458,104.885
														c1.334,14.455-51.139,91.552-51.139,91.552l-22.14-26.158l33.78-62.794l-11.375-62.547l14.977-56.433l21.29,0.254
														L166.499,244.994z"/>
												</g>
											</g>
										</g>
									</g>
								</g>
							</g>
						</g>
					</g>
				</g>
				<g>
					<g>
						<g>
							<g>
								<g>
									<g>
										<g>
											<g>
												<g>
													<path style="fill:#455A64;" d="M97.002,432.053c0,0,0.012,0.636,0.181,1.841c0.154,1.207,0.451,2.98,0.871,5.271
														c0.842,4.582,2.206,11.225,4.037,19.525l0.038,0.173l0.175-0.031c7.149-1.253,15.73-2.757,25.301-4.434l0.192-0.033
														l0.008-0.195c0.703-17.359,1.544-38.107,2.445-60.358c0.934-23.941,1.799-46.141,2.509-64.353l-0.002,0.021
														c1.896-14.631,3.464-26.73,4.562-35.196c0.529-4.205,0.945-7.507,1.231-9.783c0.132-1.109,0.234-1.967,0.306-2.571
														c0.065-0.582,0.081-0.884,0.081-0.884s-0.063,0.296-0.152,0.874c-0.088,0.602-0.213,1.457-0.374,2.562
														c-0.316,2.272-0.775,5.569-1.359,9.767c-1.145,8.46-2.782,20.549-4.761,35.169l-0.002,0.01l0,0.011
														c-0.739,18.211-1.64,40.409-2.611,64.349c-0.869,22.251-1.679,43.001-2.357,60.361l0.2-0.229
														c-9.564,1.72-18.139,3.261-25.281,4.546l0.213,0.141c-1.88-8.285-3.299-14.915-4.202-19.481
														c-0.45-2.283-0.779-4.05-0.966-5.249c-0.104-0.599-0.162-1.056-0.204-1.363
														C97.037,432.209,97.002,432.053,97.002,432.053z"/>
												</g>
											</g>
										</g>
									</g>
								</g>
							</g>
						</g>
					</g>
				</g>
			</g>
		</g>
		<g>
			<g>
				<path style="fill:#263238;" d="M118.828,76.521c0.037-1.832-0.759-3.6-1.866-5.06c-1.226-1.617-2.864-2.94-4.754-3.677
					c-3.482-1.358-7.718-0.513-10.413,2.077c-2.694,2.59-3.706,6.79-2.486,10.323c1.22,3.533,5.682,7.132,9.401,7.507l5.623-4.271
					C116.713,81.841,118.769,79.376,118.828,76.521z"/>
			</g>
			<g>
				<g>
					<path style="fill:#455A64;" d="M103.715,68.833c-0.015-0.027,0.203-0.205,0.669-0.398c0.463-0.193,1.187-0.376,2.097-0.359
						c0.905,0.022,1.994,0.26,3.05,0.855c1.058,0.591,2.028,1.551,2.75,2.73c1.462,2.395,1.58,5.01,1.465,6.752
						c-0.133,1.774-0.445,2.828-0.511,2.815c-0.094-0.014,0.072-1.094,0.096-2.831c0.009-1.714-0.18-4.191-1.551-6.43
						c-0.677-1.104-1.564-2.002-2.522-2.569c-0.957-0.572-1.957-0.836-2.8-0.908C104.745,68.354,103.75,68.941,103.715,68.833z"/>
				</g>
			</g>
			<g>
				<g>
					<path style="fill:#455A64;" d="M100.495,82.147c-0.049,0.022-0.369-0.891-0.076-2.367c0.272-1.458,1.299-3.385,3.124-4.768
						c1.824-1.372,3.827-1.958,5.243-2.251c1.431-0.287,2.331-0.315,2.342-0.244c0.014,0.089-0.865,0.262-2.243,0.647
						c-1.367,0.389-3.269,1.021-4.986,2.315c-1.707,1.295-2.719,3.053-3.076,4.398C100.444,81.234,100.602,82.139,100.495,82.147z"
						/>
				</g>
			</g>
			<g>
				<g>
					<g>
						<g>
							<g>
								<path style="fill:#263238;" d="M128.225,77.54c-5.565-0.842-10.402,1.382-15.024,4.594
									c-4.622,3.212-8.059,7.996-9.998,13.279c-2.042,5.565-2.451,11.793-0.701,17.456c1.75,5.664,5.742,10.689,11.075,13.277
									c7.283,3.534,16.489,2.088,22.856-2.911c6.367-4.998,9.911-13.137,10.074-21.23c0.112-5.576-1.323-11.252-4.521-15.821
									C138.789,81.615,133.757,78.249,128.225,77.54"/>
							</g>
						</g>
					</g>
					<g>
						<g>
							<g>
								<g>
									<g>
										<path style="fill:#263238;" d="M112.791,96.69c0.773-2.137,0.415-4.501,0.695-6.756c0.617-4.966,4.536-9.01,9.116-11.025
											c4.261-1.874,9.513-1.578,14.716,0c3.566,1.082,6.94,3.02,9.356,5.857c3.207,3.766,4.41,9.146,3.114,13.919l-25.409-3.23
											c-2.337,2.006-4.73,4.046-7.588,5.193c-0.839,0.337-1.743,0.595-2.637,0.469c-0.895-0.125-1.773-0.716-2.001-1.59
											C111.904,98.573,112.456,97.619,112.791,96.69z"/>
									</g>
								</g>
							</g>
						</g>
						<g>
							<g>
								<g>
									<g>
										<path style="fill:#B5675E;" d="M137.987,85.896l-22.04,5.089c-2.138,0.181-3.781,1.969-3.783,4.114l1.136,47.877
											c0.077,3.27,1.231,6.424,3.282,8.972l2.16,2.683c4.924,6.117,14.657,5.315,18.206-1.689
											c0.248-0.49,0.418-0.918,0.486-1.263c0.067-0.432,0.175-0.718,0.189-1.085c0.563-3.72,0.252-7.257,0.252-7.257
											c0.138-4.267,0.173-6.018,0.175-5.978c0,0,9.034-1.309,11.141-13.017c1.048-5.823,0.952-15.407,0.621-23.246
											C149.514,94.041,145.024,85.299,137.987,85.896z"/>
									</g>
								</g>
							</g>
						</g>
						<g>
							<g>
								<g>
									<g>
										<g>
											<g>
												<g>
													<g>
														<g>
															<g>
																<g>
																	<g>
																		<g>
																			<g>
																				<g>
																					<g>
																						<g>
																							<g>
																								<g>
																									<g>
																										<path style="fill:#263238;" d="M146.606,109.993c0.012,0.796-0.653,1.463-1.484,1.49
																											c-0.829,0.027-1.513-0.594-1.525-1.391c-0.012-0.796,0.653-1.463,1.482-1.491
																											C145.91,108.575,146.594,109.197,146.606,109.993z"/>
																									</g>
																								</g>
																							</g>
																						</g>
																					</g>
																				</g>
																			</g>
																		</g>
																	</g>
																</g>
															</g>
														</g>
													</g>
												</g>
											</g>
										</g>
									</g>
									<g>
										<g>
											<g>
												<g>
													<g>
														<g>
															<g>
																<g>
																	<g>
																		<g>
																			<g>
																				<g>
																					<g>
																						<g>
																							<g>
																								<g>
																									<g>
																										<g>
																											<path style="fill:#263238;" d="M147.633,106.037c-0.191,0.193-1.315-0.675-2.936-0.705
																												c-1.619-0.052-2.826,0.757-2.997,0.555c-0.085-0.09,0.113-0.44,0.638-0.807
																												c0.518-0.365,1.395-0.712,2.405-0.687c1.01,0.026,1.851,0.416,2.332,0.806
																												C147.565,105.592,147.727,105.951,147.633,106.037z"/>
																										</g>
																									</g>
																								</g>
																							</g>
																						</g>
																					</g>
																				</g>
																			</g>
																		</g>
																	</g>
																</g>
															</g>
														</g>
													</g>
												</g>
											</g>
										</g>
									</g>
								</g>
								<g>
									<g>
										<g>
											<g>
												<g>
													<g>
														<g>
															<g>
																<g>
																	<g>
																		<g>
																			<g>
																				<g>
																					<g>
																						<g>
																							<g>
																								<g>
																									<g>
																										<path style="fill:#263238;" d="M132.122,110.011c0.012,0.796-0.653,1.463-1.484,1.49
																											c-0.829,0.027-1.513-0.594-1.525-1.39c-0.012-0.796,0.653-1.464,1.482-1.491
																											C131.427,108.592,132.111,109.215,132.122,110.011z"/>
																									</g>
																								</g>
																							</g>
																						</g>
																					</g>
																				</g>
																			</g>
																		</g>
																	</g>
																</g>
															</g>
														</g>
													</g>
												</g>
											</g>
										</g>
									</g>
									<g>
										<g>
											<g>
												<g>
													<g>
														<g>
															<g>
																<g>
																	<g>
																		<g>
																			<g>
																				<g>
																					<g>
																						<g>
																							<g>
																								<g>
																									<g>
																										<g>
																											<path style="fill:#263238;" d="M132.243,105.922c-0.191,0.192-1.316-0.675-2.937-0.705
																												c-1.618-0.053-2.826,0.757-2.998,0.555c-0.084-0.09,0.111-0.44,0.639-0.807
																												c0.518-0.365,1.395-0.712,2.404-0.688c1.01,0.027,1.851,0.416,2.332,0.807
																												C132.173,105.477,132.336,105.836,132.243,105.922z"/>
																										</g>
																									</g>
																								</g>
																							</g>
																						</g>
																					</g>
																				</g>
																			</g>
																		</g>
																	</g>
																</g>
															</g>
														</g>
													</g>
												</g>
											</g>
										</g>
									</g>
								</g>
								<g>
									<g>
										<g>
											<g>
												<g>
													<g>
														<g>
															<g>
																<g>
																	<g>
																		<g>
																			<g>
																				<g>
																					<g>
																						<g>
																							<g>
																								<g>
																									<g>
																										<path style="fill:#263238;" d="M137.327,118.154c-0.006-0.092,1.005-0.245,2.643-0.421
																											c0.415-0.035,0.808-0.108,0.884-0.389c0.104-0.298-0.06-0.747-0.251-1.233
																											c-0.368-1.01-0.754-2.068-1.16-3.177c-1.607-4.523-2.761-8.239-2.579-8.301
																											c0.183-0.063,1.634,3.552,3.241,8.074c0.386,1.115,0.756,2.178,1.107,3.195
																											c0.147,0.473,0.406,1.013,0.181,1.629c-0.118,0.307-0.427,0.525-0.693,0.591
																											c-0.267,0.076-0.5,0.075-0.705,0.083C138.351,118.26,137.331,118.246,137.327,118.154z"/>
																									</g>
																								</g>
																							</g>
																						</g>
																					</g>
																				</g>
																			</g>
																		</g>
																	</g>
																</g>
															</g>
														</g>
													</g>
												</g>
											</g>
										</g>
									</g>
								</g>
								<g>
									<g>
										<g>
											<g>
												<g>
													<g>
														<g>
															<g>
																<g>
																	<g>
																		<g>
																			<g>
																				<g>
																					<g>
																						<g>
																							<g>
																								<g>
																									<path style="fill:#894943;" d="M138.051,137.36c0,0-7.913,0.346-15.645-4.521
																										c0,0,3.787,8.213,15.567,7.356L138.051,137.36z"/>
																								</g>
																							</g>
																						</g>
																					</g>
																				</g>
																			</g>
																		</g>
																	</g>
																</g>
															</g>
														</g>
													</g>
												</g>
											</g>
										</g>
									</g>
								</g>
								<g>
									<g>
										<g>
											<g>
												<g>
													<g>
														<g>
															<g>
																<g>
																	<g>
																		<g>
																			<g>
																				<g>
																					<g>
																						<g>
																							<g>
																								<g>
																									<path style="fill:#894943;" d="M136.561,122.047c-0.567-0.783-1.58-1.227-2.596-1.139
																										c-0.705,0.061-1.423,0.386-1.862,0.95c-0.439,0.564-0.546,1.375-0.168,1.929
																										c0.425,0.624,1.336,0.785,2.114,0.581c0.778-0.204,1.455-0.7,2.097-1.194
																										c0.178-0.137,0.36-0.28,0.473-0.47c0.113-0.19,0.142-0.441,0.01-0.603"/>
																								</g>
																							</g>
																						</g>
																					</g>
																				</g>
																			</g>
																		</g>
																	</g>
																</g>
															</g>
														</g>
													</g>
												</g>
											</g>
										</g>
									</g>
								</g>
								<g>
									<g>
										<g>
											<g>
												<g>
													<g>
														<g>
															<g>
																<g>
																	<g>
																		<g>
																			<g>
																				<g>
																					<g>
																						<g>
																							<g>
																								<g>
																									<g>
																										<path style="fill:#263238;" d="M132.533,119.177c0.264-0.01,0.231,1.75,1.711,3.03
																											c1.477,1.284,3.357,1.125,3.366,1.371c0.023,0.111-0.425,0.333-1.217,0.338
																											c-0.777,0.011-1.906-0.262-2.812-1.045c-0.903-0.784-1.277-1.815-1.322-2.538
																											C132.208,119.596,132.413,119.164,132.533,119.177z"/>
																									</g>
																								</g>
																							</g>
																						</g>
																					</g>
																				</g>
																			</g>
																		</g>
																	</g>
																</g>
															</g>
														</g>
													</g>
												</g>
											</g>
										</g>
									</g>
								</g>
							</g>
						</g>
						<g>
							<g>
								<g>
									<g>
										<g>
											<g>
												<g>
													<g>
														<g>
															<g>
																<g>
																	<g>
																		<g>
																			<g>
																				<g>
																					<g>
																						<path style="fill:#263238;" d="M132.065,101.115c-0.169,0.437-1.783,0.195-3.689,0.385
																							c-1.911,0.152-3.456,0.677-3.7,0.276c-0.109-0.191,0.167-0.6,0.796-1.014
																							c0.623-0.413,1.612-0.798,2.757-0.902c1.144-0.101,2.186,0.101,2.873,0.398
																							C131.793,100.553,132.138,100.907,132.065,101.115z"/>
																					</g>
																				</g>
																			</g>
																		</g>
																	</g>
																</g>
															</g>
														</g>
													</g>
												</g>
											</g>
										</g>
									</g>
								</g>
							</g>
						</g>
						<g>
							<g>
								<g>
									<g>
										<g>
											<g>
												<g>
													<g>
														<g>
															<g>
																<g>
																	<g>
																		<g>
																			<g>
																				<g>
																					<g>
																						<path style="fill:#263238;" d="M147.309,98.938c-0.293,0.362-1.402-0.043-2.744-0.089
																							c-1.341-0.093-2.485,0.196-2.739-0.194c-0.111-0.189,0.076-0.554,0.58-0.893
																							c0.497-0.337,1.322-0.604,2.244-0.557c0.922,0.048,1.715,0.399,2.174,0.785
																							C147.29,98.379,147.438,98.761,147.309,98.938z"/>
																					</g>
																				</g>
																			</g>
																		</g>
																	</g>
																</g>
															</g>
														</g>
													</g>
												</g>
											</g>
										</g>
									</g>
								</g>
							</g>
						</g>
						<g>
							<g>
								<g>
									<g>
										<path style="fill:#263238;" d="M108.673,93.347c2.171-6.779,12.02-16.141,19.119-15.633l11.328,6.821
											c-0.693,3.863-3.682,7.222-7.439,8.359c-2.006,0.607-4.421,0.771-5.616,2.493c-1.221,1.758-0.513,4.323-1.65,6.137
											c-1.575,2.514-5.867,2.387-7.05,5.107c-0.517,1.188-0.251,2.61-0.789,3.789c-0.717,1.571-4.7,3.557-6.345,3.032
											c-1.645-0.525-1.645-3.327-2.181-4.797c-0.915-2.511-0.534-3.811-0.229-5.212
											C108.546,100.125,107.638,96.582,108.673,93.347z"/>
									</g>
								</g>
							</g>
						</g>
						<g>
							<g>
								<g>
									<g>
										<g>
											<g>
												<g>
													<path style="fill:#B5675E;" d="M115.087,114.848c0.016-0.875-0.952-2.958-1.814-3.111
														c-2.299-0.407-6.461-0.308-6.621,5.55c-0.218,8.008,7.866,6.575,7.887,6.346
														C114.554,123.454,115.031,117.869,115.087,114.848z"/>
												</g>
											</g>
										</g>
									</g>
								</g>
							</g>
						</g>
						<g>
							<g>
								<g>
									<g>
										<g>
											<g>
												<g>
													<g>
														<path style="fill:#894943;" d="M112.175,120.533c-0.035-0.026-0.142,0.094-0.381,0.196
															c-0.233,0.099-0.63,0.161-1.043-0.007c-0.838-0.333-1.513-1.696-1.513-3.14c-0.001-0.729,0.171-1.419,0.445-1.987
															c0.26-0.579,0.65-0.978,1.078-1.042c0.426-0.087,0.721,0.176,0.813,0.404c0.101,0.227,0.046,0.386,0.088,0.4
															c0.021,0.021,0.175-0.129,0.12-0.461c-0.029-0.16-0.117-0.352-0.301-0.511c-0.188-0.161-0.468-0.249-0.766-0.225
															c-0.619,0.026-1.19,0.579-1.491,1.202c-0.335,0.625-0.545,1.4-0.544,2.219c0.007,1.615,0.792,3.147,1.941,3.514
															c0.559,0.162,1.034,0.005,1.282-0.177C112.155,120.727,112.202,120.548,112.175,120.533z"/>
													</g>
												</g>
											</g>
										</g>
									</g>
								</g>
							</g>
						</g>
					</g>
					<g>
						<g>
							<g>
								<path style="fill:#263238;" d="M136.752,82.158c0.796,3.245,5.823,7.332,8.042,9.828c4.234,4.764,5.081,6.356,5.237,17.175
									c1.89-3.772,3.323-7.46,3.096-11.673c-0.227-4.213-1.857-8.408-4.842-11.388C145.299,83.12,140.915,81.478,136.752,82.158"
									/>
							</g>
						</g>
					</g>
				</g>
				<g>
					<g>
						<path style="fill:#455A64;" d="M101.755,104.855c0.009-0.042,0.638,0.114,1.77,0.39c1.131,0.254,2.782,0.688,4.826,0.639
							c1.017-0.032,2.127-0.229,3.229-0.723c1.093-0.491,2.185-1.295,2.949-2.497c0.79-1.185,1.019-2.814,1.705-4.37
							c0.693-1.569,2.038-2.825,3.645-3.278c1.623-0.433,3.211-0.03,4.548-0.538c1.353-0.488,2.079-1.964,2.68-3.306
							c0.584-1.378,1.315-2.693,2.233-3.636c0.91-0.955,1.926-1.613,2.899-2.053c1.963-0.889,3.735-0.857,4.881-0.641
							c0.578,0.111,1.019,0.248,1.305,0.379c0.289,0.123,0.436,0.196,0.43,0.215c-0.017,0.061-0.621-0.214-1.761-0.367
							c-1.128-0.143-2.84-0.106-4.713,0.799c-0.928,0.448-1.891,1.1-2.745,2.025c-0.866,0.925-1.522,2.13-2.104,3.53
							c-0.307,0.688-0.634,1.408-1.092,2.074c-0.454,0.661-1.09,1.247-1.849,1.528c-1.524,0.563-3.128,0.152-4.584,0.562
							c-1.458,0.411-2.688,1.552-3.323,2.976c-0.648,1.428-0.896,3.117-1.769,4.423c-0.844,1.299-2.023,2.135-3.178,2.631
							c-1.163,0.5-2.329,0.678-3.378,0.685c-2.108-0.005-3.76-0.509-4.882-0.832c-0.562-0.171-0.994-0.318-1.287-0.422
							C101.902,104.939,101.751,104.874,101.755,104.855z"/>
					</g>
				</g>
			</g>
			<g>
				<g>
					<g>
						<g>
							<path style="fill:#FF725E;" d="M106.635,90.062c-0.053-0.022,0.238-0.909,0.998-2.205c0.754-1.295,2.037-2.965,3.799-4.446
								c1.768-1.475,3.639-2.444,5.046-2.959c1.41-0.52,2.334-0.651,2.346-0.594c0.072,0.166-3.606,1.033-7.052,3.959
								C108.287,86.694,106.785,90.162,106.635,90.062z"/>
						</g>
					</g>
				</g>
			</g>
		</g>
		<g>
			<polygon style="fill:#B5675E;" points="192.599,191.375 159.639,204.767 160.898,220.794 194.71,206.085 197.647,197.699 			"/>
		</g>
		<g>
			<polygon style="fill:#455A64;" points="184.206,193.309 186.673,213.66 165.966,226.437 164.115,199.861 			"/>
		</g>
		<g>
			<path style="fill:#455A64;" d="M146.145,152.122c0.695,1.39,16.421,23.32,18.042,33.554c1.092,6.894,2.858,30.578,3.706,46.085
				c0.11,2.023,1.849,4.129,1.507,5.715c-1.234,5.715-4.195,5.164-8.047,4.837l-43.04-1.224l-19.077,2.116l9.578-28.548
				c0,0-8.267-37.513-9.578-38.672c-1.311-1.158,5.497-31.959,5.497-31.959l7.755-0.71c0,0,14.39,7.058,21.721,5.924
				c3.841-0.594,4.231-4.241,4.231-4.241L146.145,152.122z"/>
		</g>
		<g>
			<polyline style="fill:#263238;" points="211.067,192.831 211.067,191.375 230.96,191.375 230.96,192.831 			"/>
		</g>
		<g>
			<path style="fill:#B5675E;" d="M192.599,191.375l12.022-3.855l12.71,1.566c0,0,0.345,1.824-1.98,2.289
				c-2.325,0.465-7.757,0-7.757,0s-0.116,6.161-7.439,7.904l-4.766,0.581L192.599,191.375z"/>
		</g>
		<g>
			<path style="fill:#B5675E;" d="M211.794,191.577c0.003,0,0.533-0.076,0.899,1.454c0.366,1.53-0.45,3.726-0.45,3.726
				s0.614,2.283-0.45,3.104c-1.063,0.821-1.063,0.821-1.063,0.821s-0.066,3.46-1.131,4.391c-1.064,0.931-9.847,3.992-9.847,3.992
				l-6.653-2.728l2.528-7.385l10.512-6.52l1.454-1.057L211.794,191.577z"/>
		</g>
		<g>
			<g>
				<path style="fill:#894943;" d="M210.672,199.861c-0.032,0.04-0.491-0.264-1.258-0.825c-0.767-0.56-1.842-1.376-3.105-2.357
					l0.255,0.025c-0.496,0.275-0.956,0.707-1.032,1.315c-0.106,0.597,0.103,1.274,0.419,1.902c0.2,0.392,0.445,0.771,0.702,1.095
					l0.633,0.8l-0.932-0.397c-1.189-0.507-2.511-0.302-3.395,0.24l-0.242,0.149l-0.084-0.268c-0.373-1.196-1.31-1.88-1.968-2.168
					c-0.68-0.299-1.129-0.295-1.124-0.355c-0.006-0.03,0.456-0.128,1.216,0.119c0.731,0.24,1.814,0.916,2.294,2.272l-0.326-0.119
					c0.976-0.646,2.456-0.915,3.831-0.344l-0.298,0.403c-0.298-0.37-0.549-0.758-0.771-1.19c-0.341-0.682-0.594-1.45-0.454-2.226
					c0.114-0.797,0.742-1.355,1.314-1.642l0.14-0.07l0.115,0.095c1.237,1.014,2.271,1.882,2.988,2.505
					C210.305,199.44,210.704,199.82,210.672,199.861z"/>
			</g>
		</g>
		<g>
			<g>
				<path style="fill:#894943;" d="M206.455,196.495c-0.026,0.023-0.523-0.408-0.884-1.418c-0.171-0.493-0.228-1.228,0.171-1.889
					c0.403-0.65,1.103-1.104,1.921-1.337l0.129-0.037l0.107,0.096c0.077,0.069,0.159,0.142,0.242,0.216
					c2.446,2.195,4.35,4.06,4.254,4.167c-0.096,0.107-2.156-1.585-4.602-3.78c-0.083-0.074-0.165-0.148-0.241-0.217l0.235,0.059
					c-0.686,0.19-1.32,0.589-1.645,1.083c-0.33,0.501-0.334,1.085-0.223,1.547C206.154,195.921,206.542,196.446,206.455,196.495z"/>
			</g>
		</g>
		<g>
			<path style="fill:#FF725E;" d="M71.265,166.495c0.866,1.039,63.582,46.581,63.582,46.581l-31.317,61.646
				c0,0-21.529-10.044-39.365-20.087c-17.836-10.044-36.018-35.152-36.018-35.152L71.265,166.495z"/>
		</g>
		<g>
			<path style="fill:#455A64;" d="M104.007,144.437c-0.656-0.088-11.731-1.258-18.4,13.585
				c-3.538,7.874-14.375,32.491-16.507,38.473c-1.424,3.996-5.844,19.793-1.713,26.443c3.772,6.073,7.929,7.137,16.661,5.239
				c9.086-1.974,30.703-14.88,30.703-14.88l-9.455-19.365l-6.227,2.169l5.476-13.355c3.521-10.013,5.699-23.208,5.828-23.342
				C110.593,159.174,115.484,145.982,104.007,144.437z"/>
		</g>
		<g>
			<g>
				<path style="fill:#263238;" d="M98.771,222.091c-0.006-0.011,0.089-0.078,0.279-0.197c0.23-0.138,0.509-0.305,0.848-0.508
					c0.802-0.46,1.888-1.082,3.238-1.856c2.853-1.597,6.815-3.814,11.503-6.438l-0.097,0.307c-1.88-3.833-4.022-8.198-6.286-12.813
					c-1.1-2.257-2.17-4.454-3.187-6.542l0.302,0.131c-6.906,2.134-12.888,4.141-17.124,5.649c-2.121,0.748-3.799,1.391-4.955,1.826
					c-0.538,0.207-0.975,0.375-1.323,0.508c-0.303,0.112-0.464,0.163-0.47,0.149c-0.006-0.014,0.143-0.093,0.435-0.232
					c0.34-0.154,0.766-0.349,1.292-0.588c1.137-0.486,2.8-1.178,4.909-1.969c4.213-1.595,10.178-3.664,17.088-5.827l0.207-0.065
					l0.096,0.196c1.021,2.086,2.095,4.281,3.199,6.537c2.247,4.624,4.372,8.997,6.238,12.837l0.098,0.202l-0.195,0.106
					c-4.725,2.556-8.719,4.717-11.594,6.273c-1.376,0.726-2.483,1.31-3.301,1.742c-0.353,0.178-0.643,0.324-0.882,0.444
					C98.885,222.058,98.777,222.102,98.771,222.091z"/>
			</g>
		</g>
		<g>
			<path style="fill:#263238;" d="M144.989,182.322l5.972-10.119c0.982-1.663,3.083-2.283,4.81-1.419l14.861,8.303
				c1.95,0.976,3.208,3.256,1.43,5.825l-18.882,29.611c-1.049,1.645-3.2,2.184-4.901,1.227l-14.477-8.143
				c-1.824-1.026-2.424-3.365-1.321-5.142L144.989,182.322z"/>
		</g>
		<g>
			<path style="fill:#FF725E;" d="M102.345,144.382l2.141-0.762c1.514-0.539,3.174-0.633,4.704-0.137
				c0.995,0.323,2.057,0.906,2.968,1.934c5.778,6.519,5.862,25.234,6.035,29.737c0.173,4.502,2.078,30.384,2.078,30.384h-7.619
				c0,0,0.84-35.671,0.93-40.975C113.872,147.436,102.345,144.382,102.345,144.382z"/>
		</g>
		<g>
			<g>
				<path style="fill:#263238;" d="M108.932,173.964c0.064,0.026-0.35,1.262-1.118,3.224c-0.768,1.962-1.9,4.645-3.262,7.557
					c-1.363,2.913-2.697,5.502-3.711,7.348c-1.014,1.847-1.697,2.958-1.758,2.925c-0.066-0.036,0.503-1.207,1.431-3.094
					c0.928-1.887,2.206-4.494,3.566-7.399c1.358-2.905,2.541-5.556,3.394-7.478C108.327,175.124,108.863,173.937,108.932,173.964z"
					/>
			</g>
		</g>
		<g>
			<g>
				<path style="fill:#894943;" d="M207.926,192.411c-0.047,0.034-0.423-0.423-0.55-1.339c-0.057-0.453-0.04-1.012,0.155-1.603
					c0.056-0.152,0.124-0.327,0.299-0.48c0.175-0.164,0.481-0.191,0.675-0.114c0.394,0.159,0.597,0.369,0.883,0.562
					c2.173,1.607,3.488,3.384,3.38,3.464c-0.115,0.101-1.574-1.483-3.691-3.046c-0.258-0.183-0.544-0.423-0.736-0.496
					c-0.099-0.031-0.139-0.025-0.196,0.014c-0.058,0.043-0.12,0.146-0.165,0.261c-0.191,0.498-0.246,0.997-0.238,1.41
					C207.766,191.879,208.003,192.378,207.926,192.411z"/>
			</g>
		</g>
		<g>
			<g>
				<path style="fill:#894943;" d="M207.858,191.188c0.028,0.022-0.142,0.183-0.485,0.149c-0.326-0.017-0.783-0.194-1.004,0.257
					c-0.407,0.959-1.13,2.435-2.311,3.68c-1.166,1.277-2.503,2.133-3.519,2.606c-1.023,0.473-1.71,0.605-1.728,0.546
					c-0.077-0.148,2.614-1.019,4.863-3.505c1.148-1.223,1.837-2.51,2.388-3.532c0.164-0.268,0.52-0.439,0.776-0.392
					c0.251,0.028,0.423,0.104,0.567,0.14C207.687,191.223,207.837,191.153,207.858,191.188z"/>
			</g>
		</g>
		<g>
			<g>
				<path style="fill:#263238;" d="M167.508,233.128c-0.036,0.003-0.116-0.479-0.231-1.355c-0.116-0.876-0.261-2.146-0.422-3.717
					c-0.324-3.142-0.701-7.49-1.01-12.301c-0.307-4.812-0.486-9.173-0.565-12.331c-0.04-1.579-0.058-2.857-0.054-3.741
					c0.002-0.884,0.021-1.372,0.057-1.374c0.036-0.001,0.086,0.486,0.146,1.367c0.058,0.982,0.132,2.235,0.22,3.733
					c0.189,3.253,0.44,7.555,0.717,12.313c0.331,4.752,0.63,9.051,0.857,12.302c0.103,1.497,0.19,2.749,0.257,3.73
					C167.532,232.635,167.544,233.125,167.508,233.128z"/>
			</g>
		</g>
		<g>
			<g>
				<path style="fill:#263238;" d="M123.718,206.729c0.015,0.01-0.101,0.227-0.335,0.632c-0.266,0.447-0.613,1.031-1.047,1.759
					c-0.956,1.568-2.285,3.751-3.915,6.427c-3.334,5.47-7.889,12.942-12.921,21.198c-5.005,8.276-9.533,15.766-12.848,21.248
					c-1.627,2.677-2.954,4.862-3.908,6.431c-0.448,0.719-0.807,1.296-1.082,1.737c-0.252,0.394-0.392,0.597-0.408,0.588
					c-0.016-0.009,0.094-0.229,0.317-0.641c0.254-0.454,0.585-1.047,0.998-1.787c0.919-1.59,2.198-3.803,3.766-6.516
					c3.206-5.487,7.688-13.037,12.72-21.33c5.028-8.29,9.658-15.75,13.054-21.122c1.689-2.639,3.066-4.793,4.056-6.34
					c0.467-0.706,0.843-1.273,1.129-1.707C123.557,206.918,123.702,206.719,123.718,206.729z"/>
			</g>
		</g>
		<g>
			<g>
				<path style="fill:#E0E0E0;" d="M133.381,204.438c-0.016-0.009,0.08-0.204,0.276-0.567c0.228-0.408,0.519-0.929,0.878-1.573
					c0.815-1.412,1.938-3.357,3.312-5.736c2.87-4.869,6.777-11.498,11.094-18.823c0.545-0.917,1.084-1.823,1.615-2.716
					c0.52-0.873,1.038-1.854,1.895-2.512c0.424-0.323,0.916-0.589,1.461-0.668c0.534-0.096,1.12,0.019,1.568,0.262
					c0.882,0.435,1.705,0.897,2.518,1.344c3.234,1.802,6.107,3.488,8.504,4.932c1.198,0.723,2.275,1.389,3.207,2
					c0.461,0.306,0.91,0.588,1.248,0.962c0.336,0.368,0.531,0.8,0.607,1.199c0.137,0.809-0.059,1.426-0.199,1.811
					c-0.153,0.388-0.28,0.569-0.294,0.561c-0.017-0.009,0.078-0.204,0.195-0.594c0.106-0.386,0.257-0.994,0.1-1.735
					c-0.086-0.365-0.276-0.748-0.592-1.073c-0.31-0.325-0.753-0.591-1.223-0.885c-0.941-0.583-2.029-1.227-3.238-1.928
					c-2.418-1.401-5.309-3.053-8.548-4.828c-0.81-0.438-1.644-0.899-2.5-1.315c-0.797-0.443-1.767-0.236-2.499,0.359
					c-0.759,0.588-1.228,1.465-1.761,2.368c-0.531,0.894-1.069,1.801-1.613,2.718c-4.37,7.297-8.324,13.901-11.229,18.751
					c-1.433,2.344-2.604,4.261-3.455,5.653c-0.394,0.623-0.713,1.128-0.962,1.523C133.522,204.27,133.397,204.447,133.381,204.438z"
					/>
			</g>
		</g>
		<g>
			<g>
				<path style="fill:#B5675E;" d="M105.549,194.45c0,0,16.493-8.039,21.271-8.789c4.778-0.749,20.113-0.749,20.113-0.749
					s8.779,3.481,10.112,6.463c1.333,2.982,0,4.12,0,4.12s0.493,1.574-0.229,3.031c-0.376,0.76-2.073,1.05-2.073,1.05l0.164,0.739
					c0,0,0.026,0.605-1.418,1.158c-1.445,0.552-2.461-0.45-2.461-0.45l-4.54-2.039l-5.611-0.675l4.762,1.7
					c0,0,4.138,1.507,4.655,2.721c0.301,0.706-0.138,1.851-1.472,1.628c-1.333-0.222-18.891-3.334-18.891-3.334l-2.889-0.805
					c0,0-13.81,9.493-13.801,9.539C113.25,209.805,105.549,194.45,105.549,194.45z"/>
			</g>
			<g>
				<g>
					<path style="fill:#894943;" d="M140.877,193.628c-0.017-0.048,0.847-0.369,2.314-0.394c1.459-0.04,3.494,0.3,5.534,1.204
						c2.051,0.888,3.658,2.173,4.651,3.232c0.995,1.07,1.411,1.88,1.367,1.906c-0.075,0.053-0.595-0.672-1.627-1.645
						c-1.034-0.964-2.616-2.157-4.601-3.016c-1.974-0.874-3.92-1.258-5.33-1.313C141.77,193.532,140.896,193.719,140.877,193.628z"
						/>
				</g>
			</g>
			<g>
				<g>
					<path style="fill:#894943;" d="M157.116,195.751c-0.053,0.054-0.75-0.551-2.003-1.361c-1.255-0.808-3.005-1.93-4.902-3.208
						c-0.96-0.621-1.83-1.309-2.688-1.692c-0.871-0.364-1.758-0.492-2.487-0.556c-1.475-0.12-2.395,0.048-2.408-0.034
						c-0.017-0.057,0.896-0.361,2.427-0.334c0.761,0.022,1.679,0.106,2.655,0.482c0.97,0.408,1.831,1.083,2.792,1.701
						c1.9,1.28,3.608,2.444,4.823,3.339C156.542,194.989,157.166,195.704,157.116,195.751z"/>
				</g>
			</g>
		</g>
	</g>
</g>
</svg>
